OpenSim_Sub03_CSStiffKnee_LCS.mot
version=1
nRows=40
nColumns=11
inDegrees=no
endheader
time	Bot_Shank	2nd_Bot_Shank	2nd_Top_Shank	Top_Shank	Bot_Thigh	Med_Thigh	Top_Thigh	BNOx	BNOy	BNOZ
27.27000000	1291.00797378	1266.55975390	1154.51500849	980.02913899	1140.04611919	953.53579169	973.79419491	218.64711925	-73.64186812	-142.46842328
27.28000000	1290.50607949	1266.73837665	1154.78947645	980.01501294	1140.02347109	953.72497146	973.92994995	218.00463577	-73.39770237	-141.10028381
27.29000000	1290.07740699	1266.95749527	1154.98458474	980.00214362	1140.00328037	953.95029254	973.99711277	217.37421983	-73.16475884	-139.80020335
27.30000000	1289.71499536	1267.15179079	1154.95769647	979.99336484	1139.99020540	954.21436721	973.97346632	216.75980121	-72.94780316	-138.68477405
27.31000000	1289.39899597	1267.29209345	1154.69477076	979.98898544	1139.98445738	954.51339076	973.86695828	216.15947824	-72.74624066	-137.75422302
27.32000000	1289.10378392	1267.36543565	1154.23940381	979.98818253	1139.98425430	954.84068233	973.69905627	215.56873556	-72.55707420	-136.95662212
27.33000000	1288.80370706	1267.35892621	1153.63546372	979.99012787	1139.98780474	955.18954751	973.49129168	214.98304547	-72.37729528	-136.23979724
27.34000000	1288.47311323	1267.25967397	1152.92681858	979.99399325	1139.99331728	955.55329190	973.26519590	214.39788030	-72.20389542	-135.55157426
27.35000000	1288.08635028	1267.05478775	1152.15733647	979.99895043	1139.99900052	955.92522109	973.04230033	213.80871236	-72.03386614	-134.83977904
27.36000000	1287.62118851	1266.73422510	1151.36653613	980.00421815	1140.00324148	956.29877542	972.84139399	213.21158251	-71.86435419	-134.05765012
27.37000000	1287.08069249	1266.30899750	1150.56179189	980.00936215	1140.00574618	956.66839104	972.66099820	212.60673364	-71.69365381	-133.19842903
27.38000000	1286.47926369	1265.79955284	1149.73607087	980.01410373	1140.00681178	957.02895049	972.49055019	211.99629198	-71.52057351	-132.27328672
27.39000000	1285.83135707	1265.22638351	1148.88227221	980.01816490	1140.00673824	957.37533837	972.31944436	211.38239266	-71.34392422	-131.29347874
27.40000000	1285.15142761	1264.60998193	1147.99329506	980.02126769	1140.00582550	957.70243930	972.13707510	210.76717080	-71.16251689	-130.27026063
27.41000000	1284.45393027	1263.97084048	1147.06203857	980.02313412	1140.00437352	958.00513790	971.93283682	210.15276151	-70.97516246	-129.21488792
27.42000000	1283.75332001	1263.32945157	1146.08140190	980.02348622	1140.00268226	958.27831879	971.69612391	209.54129992	-70.78067186	-128.13861615
27.43000000	1283.06405179	1262.70630761	1145.04428419	980.02204599	1140.00105166	958.51686658	971.41633075	208.93492114	-70.57785603	-127.05270087
27.44000000	1282.40058059	1262.12190099	1143.94358460	980.01853547	1139.99978169	958.71566589	971.08285176	208.33576029	-70.36552591	-125.96839761
27.45000000	1281.77736136	1261.59672412	1142.77220227	980.01267668	1139.99917229	958.86960134	970.68508132	207.74595250	-70.14249245	-124.89696192
27.46000000	1281.20884906	1261.15126939	1141.52303636	980.00419163	1139.99952341	958.97355755	970.21241383	207.16763289	-69.90756657	-123.84964933
27.47000000	1280.71021231	1260.80454377	1140.19631287	979.99291427	1140.00109494	959.02326061	969.65655781	206.60256446	-69.65957078	-122.83684701
27.48000000	1280.30729774	1260.55332748	1138.90188927	979.98035290	1140.00354714	959.02702757	969.04384809	206.04694229	-69.39750044	-121.85594873
27.49000000	1280.03417203	1260.37729061	1137.83401756	979.96930481	1140.00607868	959.00286804	968.42727486	205.49267529	-69.12048400	-120.89434595
27.50000000	1279.92511326	1260.25566311	1137.18912065	979.96260046	1140.00787635	958.96904095	967.86051398	204.93156207	-68.82765333	-119.93917279
27.51000000	1280.01439955	1260.16767490	1137.16362145	979.96307027	1140.00812696	958.94380523	967.39724132	204.35540128	-68.51814031	-118.97756340
27.52000000	1280.33630898	1260.09255594	1137.95394287	979.97354468	1140.00601730	958.94541982	967.09113275	203.75599155	-68.19107679	-117.99665193
27.53000000	1280.92511966	1260.00953617	1139.75650783	979.99685415	1140.00073416	958.99214364	966.99586414	203.12513152	-67.84559466	-116.98357251
27.54000000	1281.80059448	1259.90419853	1142.62208489	980.03386325	1139.99196305	959.09777533	967.15121036	202.45571228	-67.48089821	-115.92763636
27.55000000	1282.90398683	1259.79648794	1145.81363049	980.07480368	1139.98208678	959.25198870	967.52175889	201.74653382	-67.09658348	-114.82992995
27.56000000	1284.15012805	1259.71791370	1148.32896621	980.10632865	1139.97439593	959.43633847	968.04679322	200.99838473	-66.69237834	-113.69550264
27.57000000	1285.45382954	1259.69999384	1149.16571382	980.11508872	1139.97218179	959.63237326	968.66557777	200.21205511	-66.26801076	-112.52940681
27.58000000	1286.72990274	1259.77424637	1147.32149510	980.08773442	1139.97873563	959.82164167	969.31737694	199.38833504	-65.82320872	-111.33669483
27.59000000	1287.89315906	1259.97218929	1141.79393184	980.01091628	1139.99734872	959.98569229	969.94145515	198.52801464	-65.35770018	-110.12241907
27.60000000	1288.87424355	1260.31942982	1131.90547804	979.87782476	1140.02971281	960.10861557	970.48498330	197.63211865	-64.87084618	-108.89287342
27.61000000	1289.68944183	1260.80960489	1118.73553353	979.71702325	1140.06886820	960.18825012	970.93789665	196.70294104	-64.36002301	-107.66106703
27.62000000	1290.38386150	1261.42559194	1103.95479082	979.56897980	1140.10494353	960.22706146	971.30452263	195.74320294	-63.82193899	-106.44226898
27.63000000	1291.00263187	1262.15026033	1089.23438804	979.47417139	1140.12806529	960.22751858	971.58919952	194.75562580	-63.25330195	-105.25175010
27.64000000	1291.59088225	1262.96647941	1076.24546327	979.47307501	1140.12835994	960.19209049	971.79626561	193.74293106	-62.65081974	-104.10478118
27.65000000	1292.19374196	1263.85711854	1066.65915463	979.60616767	1140.09595395	960.12324620	971.93005917	192.70784018	-62.01120017	-103.01663304
27.66000000	1292.85634031	1264.80504706	1062.14660022	979.91392636	1140.02097380	960.02345469	971.99491848	191.65307459	-61.33115107	-102.00257649
